<?xml version="1.0" encoding="UTF-8" standalone="no"?>
<svg width="37px" height="43px" viewBox="0 0 37 43" version="1.1" xmlns="http://www.w3.org/2000/svg" xmlns:xlink="http://www.w3.org/1999/xlink" xmlns:sketch="http://www.bohemiancoding.com/sketch/ns">
    <!-- Generator: Sketch 3.3.2 (12043) - http://www.bohemiancoding.com/sketch -->
    <title>Polygon 3</title>
    <desc>Created with Sketch.</desc>
    <defs></defs>
    <g id="Welcome" stroke="none" stroke-width="1" fill="none" fill-rule="evenodd" sketch:type="MSPage">
        <g id="Desktop_C" sketch:type="MSArtboardGroup" transform="translate(-890.000000, -1371.000000)" fill="#B8E986">
            <g id="btnSend" sketch:type="MSLayerGroup" transform="translate(889.000000, 1371.000000)">
                <path d="M21.2238223,41.9983195 C20.2717815,42.5515324 18.7286312,42.5517722 17.7761777,41.9983195 L2.72382226,33.2516805 C1.77178151,32.6984676 1,31.3535444 1,30.246639 L1,12.753361 C1,11.6469353 1.77136878,10.3017722 2.72382226,9.7483195 L17.7761777,1.0016805 C18.7282185,0.448467637 20.2713688,0.448227804 21.2238223,1.0016805 L36.2761777,9.7483195 C37.2282185,10.3015324 38,11.6464556 38,12.753361 L38,30.246639 C38,31.3530647 37.2286312,32.6982278 36.2761777,33.2516805 L21.2238223,41.9983195 L21.2238223,41.9983195 Z M24.8125,21.7142857 C24.8125,22.0238111 24.7023821,22.2946417 24.4821429,22.5267857 L18.6607143,28.3392857 C18.4404751,28.5595249 18.1726206,28.6696429 17.8571429,28.6696429 C17.5416651,28.6696429 17.2738106,28.5595249 17.0535714,28.3392857 L16.375,27.6696429 C16.1547608,27.4374988 16.0446429,27.1666682 16.0446429,26.8571429 C16.0446429,26.5416651 16.1547608,26.2738106 16.375,26.0535714 L20.7142857,21.7142857 L16.375,17.3839286 C16.1547608,17.1517846 16.0446429,16.8809539 16.0446429,16.5714286 C16.0446429,16.2559508 16.1547608,15.9880963 16.375,15.7678571 L17.0535714,15.0982143 C17.2678582,14.8720227 17.5357127,14.7589286 17.8571429,14.7589286 C18.178573,14.7589286 18.4464275,14.8720227 18.6607143,15.0982143 L24.4821429,20.9107143 C24.7023821,21.1309535 24.8125,21.3988079 24.8125,21.7142857 L24.8125,21.7142857 Z" id="Polygon-3" sketch:type="MSShapeGroup"></path>
            </g>
        </g>
    </g>
</svg>