<?xml version="1.0" encoding="UTF-8" standalone="no"?>
<svg width="28px" height="32px" viewBox="0 0 28 32" version="1.1" xmlns="http://www.w3.org/2000/svg" xmlns:xlink="http://www.w3.org/1999/xlink" xmlns:sketch="http://www.bohemiancoding.com/sketch/ns">
    <!-- Generator: Sketch 3.3.2 (12043) - http://www.bohemiancoding.com/sketch -->
    <title>burguer</title>
    <desc>Created with Sketch.</desc>
    <defs></defs>
    <g id="Welcome" stroke="none" stroke-width="1" fill="none" fill-rule="evenodd" sketch:type="MSPage">
        <g id="Desktop_C" sketch:type="MSArtboardGroup" transform="translate(-961.000000, -29.000000)" stroke="#FFFFFF">
            <g id="ButtonMainMenu" sketch:type="MSLayerGroup" transform="translate(909.000000, 30.000000)">
                <g id="burguer" transform="translate(53.000000, 0.000000)" sketch:type="MSShapeGroup">
                    <path d="M14.7944563,29.2962454 C13.8410473,29.8605955 12.293879,29.8597744 11.341857,29.2962454 L1.7944563,23.644866 C0.841047339,23.080516 0.0681566684,21.729059 0.0681566684,20.6268052 L0.0681566684,9.22909142 C0.0681566684,8.12661246 0.842434355,6.77455958 1.7944563,6.21103058 L11.341857,0.559651161 C12.295266,-0.00469885557 13.8424344,-0.0038778406 14.7944563,0.559651161 L24.341857,6.21103058 C25.295266,6.7753806 26.0681567,8.12683761 26.0681567,9.22909142 L26.0681567,20.6268052 C26.0681567,21.7292841 25.293879,23.081337 24.341857,23.644866 L14.7944563,29.2962454 L14.7944563,29.2962454 Z" id="menu-border"></path>
                    <path d="M6.46025548,9.5 L19.5397445,9.5" id="Line3" stroke-linecap="square"></path>
                    <path d="M6.46025548,14.5 L19.5397445,14.5" id="Line2" stroke-linecap="square"></path>
                    <path d="M6.46025548,19.5 L19.5397445,19.5" id="Line1" stroke-linecap="square"></path>
                </g>
            </g>
        </g>
    </g>
</svg>