<?xml version="1.0" encoding="UTF-8" standalone="no"?>
<svg width="150px" height="168px" viewBox="0 0 150 168" version="1.1" xmlns="http://www.w3.org/2000/svg" xmlns:xlink="http://www.w3.org/1999/xlink" xmlns:sketch="http://www.bohemiancoding.com/sketch/ns">
    <!-- Generator: Sketch 3.3.2 (12043) - http://www.bohemiancoding.com/sketch -->
    <title>hexagon</title>
    <desc>Created with Sketch.</desc>
    <defs></defs>
    <g id="Page-1" stroke="none" stroke-width="1" fill="none" fill-rule="evenodd" sketch:type="MSPage">
        <g id="Artboard-1" sketch:type="MSArtboardGroup" transform="translate(-347.000000, -147.000000)" fill="#FFFFFF">
            <g id="hexagon" sketch:type="MSLayerGroup" transform="translate(347.000000, 147.000000)">
                <path d="M78.7231224,156.527385 L78.7231224,156.527385 L136.077614,123.405166 C137.760459,122.433324 139.735123,119.013595 139.735123,117.06741 L139.735123,50.8229714 C139.735123,48.8781636 137.761651,45.4577457 136.077614,44.4852147 L78.7231224,11.3629956 C77.0411346,10.3916476 73.0951739,10.3909596 71.4119947,11.3629956 L14.0575026,44.4852147 C12.3746581,45.4570575 10.3999939,48.8767863 10.3999939,50.8229714 L10.3999939,117.06741 C10.3999939,119.012217 12.3734663,122.432635 14.0575026,123.405166 L71.4119947,156.527385 C73.0939825,157.498733 77.0399432,157.499421 78.7231224,156.527385 L78.7231224,156.527385 L78.7231224,156.527385 Z M66.4110222,165.187078 L9.05653021,132.064859 C4.27565722,129.303905 0.399993896,122.580574 0.399993896,117.06741 L0.399993896,50.8229714 C0.399993896,45.3010631 4.28322744,38.5821046 9.05653021,35.8255222 L66.4110222,2.70330306 C71.1918952,-0.0576510959 78.9507921,-0.0532792918 83.7240949,2.70330306 L141.078587,35.8255222 C145.85946,38.5864764 149.735123,45.3098067 149.735123,50.8229714 L149.735123,117.06741 C149.735123,122.589318 145.85189,129.308276 141.078587,132.064859 L83.7240949,165.187078 C78.9432219,167.948032 71.184325,167.94366 66.4110222,165.187078 L66.4110222,165.187078 Z" id="outside" sketch:type="MSShapeGroup"></path>
                <path d="M78.7231224,156.527385 L78.7231224,156.527385 L136.077614,123.405166 C137.760459,122.433324 139.735123,119.013595 139.735123,117.06741 L139.735123,50.8229714 C139.735123,48.8781636 137.761651,45.4577457 136.077614,44.4852147 L78.7231224,11.3629956 C77.0411346,10.3916476 73.0951739,10.3909596 71.4119947,11.3629956 L14.0575026,44.4852147 C12.3746581,45.4570575 10.3999939,48.8767863 10.3999939,50.8229714 L10.3999939,117.06741 C10.3999939,119.012217 12.3734663,122.432635 14.0575026,123.405166 L71.4119947,156.527385 C73.0939825,157.498733 77.0399432,157.499421 78.7231224,156.527385 L78.7231224,156.527385 L78.7231224,156.527385 Z" id="inside" sketch:type="MSShapeGroup"></path>
            </g>
        </g>
    </g>
</svg>