<?xml version="1.0" encoding="UTF-8" standalone="no"?>
<svg width="173px" height="40px" viewBox="0 0 173 40" version="1.1" xmlns="http://www.w3.org/2000/svg" xmlns:xlink="http://www.w3.org/1999/xlink" xmlns:sketch="http://www.bohemiancoding.com/sketch/ns">
    <!-- Generator: Sketch 3.3.2 (12043) - http://www.bohemiancoding.com/sketch -->
    <title>iconos_logotipo</title>
    <desc>Created with Sketch.</desc>
    <defs>
        <rect id="path-1" x="0.0232087211" y="0.00975548446" width="178.643856" height="27.8813372"></rect>
    </defs>
    <g id="Welcome" stroke="none" stroke-width="1" fill="none" fill-rule="evenodd" sketch:type="MSPage">
        <g id="Desktop_C-Menu" sketch:type="MSArtboardGroup" transform="translate(-786.000000, -31.000000)">
            <g id="MainMenu" sketch:type="MSLayerGroup" transform="translate(640.000000, 0.000000)">
                <g id="iconos_logotipo" transform="translate(144.000000, 31.000000)">
                    <g id="Group" transform="translate(0.027568, 0.203392)">
                        <g id="Clipped">
                            <mask id="mask-2" sketch:name="Rectangle-path" fill="white">
                                <use xlink:href="#path-1"></use>
                            </mask>
                            <g id="Rectangle-path"></g>
                            <g id="Group" mask="url(#mask-2)" fill="#4C646D" sketch:type="MSShapeGroup">
                                <g transform="translate(2.596780, -2.276280)">
                                    <rect id="Rectangle-path" x="0.0624850182" y="0.681257998" width="6.88503752" height="31.3581918"></rect>
                                    <path d="M37.1917321,0.682883912 L37.1917321,6.02287352 L26.3902634,6.02287352 C23.8929726,6.02287352 22.0348142,6.79404456 20.8149768,8.33492333 C19.3914545,10.1393628 18.6810729,13.1650263 18.6810729,17.4109383 C18.6810729,21.280939 19.4070352,23.8692316 20.8587975,25.1777673 C21.9033522,26.1095786 23.7472283,26.57459 26.3902634,26.57459 L37.1917321,26.57459 L37.1917321,32.0410758 L26.1227951,32.0410758 C16.3613369,32.0410758 11.4808512,27.0109854 11.4808512,16.950642 C11.4808512,11.7756827 12.5263797,7.86535935 14.6179237,5.21837123 C17.0290339,2.19579696 20.9227432,0.682883912 26.2969417,0.682883912 L37.1917321,0.682883912 L37.1917321,0.682883912 Z" id="Shape"></path>
                                    <path d="M47.0507318,16.2819036 C47.0507318,23.6443677 49.8810597,27.3257623 55.5439877,27.3257623 C61.2353179,27.3257623 64.0812264,23.6882674 64.0812264,16.4124645 C64.0812264,9.10804548 61.2353179,5.45510432 55.5439877,5.45510432 C49.8810597,5.45510432 47.0507318,9.0639832 47.0507318,16.2819036 M55.5051983,0.0747920475 C60.327581,0.0747920475 64.0031607,1.13765208 66.5312883,3.26125846 C69.6982238,5.88044344 71.2814481,10.2595178 71.2814481,16.3989694 C71.2814481,27.282513 66.0516955,32.7231467 55.5930019,32.7231467 C50.2470434,32.7231467 46.2953935,31.36372 43.738539,28.642265 C41.1818468,25.9221107 39.904231,21.8111496 39.904231,16.3113326 C39.904231,5.48680964 45.1039583,0.0747920475 55.5051983,0.0747920475" id="Shape"></path>
                                    <path d="M82.3805726,32.0402628 L75.6351121,32.0402628 L75.6351121,0.682070955 L84.0068061,0.682070955 L96.7808537,23.2655297 L96.5085164,0.682070955 L103.147184,0.682070955 L103.147184,32.0402628 L95.5585818,32.0402628 L82.127062,8.33524852 L82.3805726,32.0402628 L82.3805726,32.0402628 Z" id="Shape"></path>
                                    <path d="M114.594277,16.2819036 C114.594277,23.6443677 117.424443,27.3257623 123.087858,27.3257623 C128.779513,27.3257623 131.624772,23.6882674 131.624772,16.4124645 C131.624772,9.10804548 128.779513,5.45510432 123.087858,5.45510432 C117.424443,5.45510432 114.594277,9.0639832 114.594277,16.2819036 M123.048744,0.0747920475 C127.871127,0.0747920475 131.546544,1.13765208 134.074996,3.26125846 C137.241607,5.88044344 138.824831,10.2595178 138.824831,16.3989694 C138.824831,27.282513 133.595403,32.7231467 123.136223,32.7231467 C117.790914,32.7231467 113.838939,31.36372 111.282409,28.642265 C108.725555,25.9221107 107.447777,21.8111496 107.447777,16.3113326 C107.447777,5.48680964 112.647829,0.0747920475 123.048744,0.0747920475" id="Shape"></path>
                                    <path d="M152.472533,0.682883912 L169.773418,0.682883912 L169.773418,6.28497086 L153.518549,6.28497086 C150.089825,6.28497086 148.376924,7.65756753 148.376924,10.4016227 C148.376924,12.6795283 149.770259,13.8186437 152.559201,13.8186437 L161.231148,13.8186437 C164.978301,13.8186437 167.637079,14.574206 169.206021,16.0854931 C170.657946,17.4522365 171.355343,19.6460824 171.297403,22.6688192 C171.238164,25.807809 170.439979,28.1032745 168.90025,29.5555409 C167.157324,31.2129977 164.294699,32.0410758 160.315945,32.0410758 L142.798554,32.0410758 L142.798554,26.4105353 L159.270254,26.4105353 C161.274968,26.4105353 162.65467,26.048932 163.410333,25.3239369 C164.019927,24.7451115 164.32586,23.7461499 164.32586,22.3268895 C164.32586,21.4006063 164.09215,20.7193483 163.628138,20.2844162 C162.930578,19.6186044 161.623424,19.2854546 159.705539,19.2854546 L151.948957,19.2854546 C144.888637,19.2854546 141.404083,16.2433694 141.491238,10.1582234 C141.549178,7.04411015 142.363106,4.72994664 143.931886,3.21589545 C145.675299,1.52770887 148.522019,0.682883912 152.472533,0.682883912" id="Shape"></path>
                                </g>
                            </g>
                        </g>
                        <g id="instituto" transform="translate(2.370636, 29.448899)" fill="#5D7B86" sketch:type="MSShapeGroup">
                            <rect id="Rectangle-path" x="0.14239739" y="0.624007954" width="1.12326964" height="6.91907735"></rect>
                            <path d="M2.20368888,4.12460096 C2.20368888,3.49813627 2.18908199,2.97491712 2.17398821,2.522913 L3.14924139,2.522913 L3.20101469,3.22108051 L3.22308732,3.22108051 C3.37077918,2.89264587 3.73286769,2.41007457 4.33889121,2.41007457 C5.07751282,2.41007457 5.63143845,3.09799881 5.63143845,4.5761173 L5.63143845,7.54292272 L4.50865571,7.54292272 L4.50865571,4.76098373 C4.50865571,4.11419511 4.34603236,3.67292203 3.93979859,3.67292203 C3.62964568,3.67292203 3.44478741,3.9706269 3.36363803,4.25792592 C3.33393736,4.36052109 3.32647162,4.5042519 3.32647162,4.64814529 L3.32647162,7.54292272 L2.20368888,7.54292272 L2.20368888,4.12460096 L2.20368888,4.12460096 Z" id="Shape"></path>
                            <path d="M6.52544488,6.18788593 C6.73237578,6.36234651 7.16100678,6.5574562 7.49355691,6.5574562 C7.83324819,6.5574562 7.97363661,6.40348213 7.97363661,6.1467503 C7.97363661,5.8799378 7.86278657,5.7568561 7.44908706,5.56158382 C6.69569626,5.22274333 6.40745369,4.6479827 6.41459483,4.06281623 C6.41459483,3.11832274 6.99091769,2.41007457 7.8848592,2.41007457 C8.30602445,2.41007457 8.6754164,2.55364278 8.89695419,2.70794203 L8.70495477,3.77535462 C8.54249373,3.66251618 8.22487507,3.49813627 7.92186331,3.49813627 C7.64871452,3.49813627 7.49355691,3.65227292 7.49355691,3.89859891 C7.49355691,4.14492489 7.63378303,4.26816917 8.07702091,4.48392797 C8.76403152,4.80211936 9.04497065,5.29477132 9.0521118,6.02350601 C9.0521118,6.9679995 8.52772454,7.65576115 7.49355691,7.65576115 C7.02061836,7.65576115 6.59945311,7.50178709 6.32597971,7.29643414 L6.52544488,6.18788593 L6.52544488,6.18788593 Z" id="Shape"></path>
                            <path d="M10.9949901,1.15893369 L10.9949901,2.52405114 L11.8003165,2.52405114 L11.8003165,3.67406017 L10.9949901,3.67406017 L10.9949901,5.50126241 C10.9949901,6.1069154 11.1058402,6.38413375 11.438228,6.38413375 C11.5933856,6.38413375 11.6673938,6.3737279 11.7706158,6.34299813 L11.7782439,7.52373693 C11.6376932,7.59543974 11.3645444,7.65706189 11.0542292,7.65706189 C10.6921407,7.65706189 10.3894535,7.48260131 10.2045952,7.22586947 C9.99750201,6.92800201 9.89428,6.4457559 9.89428,5.73734513 L9.89428,3.67406017 L9.4142003,3.67406017 L9.4142003,2.52405114 L9.89428,2.52405114 L9.89428,1.57972025 L10.9949901,1.15893369 L10.9949901,1.15893369 Z" id="Shape"></path>
                            <path d="M12.450323,2.5230756 L13.5734303,2.5230756 L13.5734303,7.54308531 L12.450323,7.54308531 L12.450323,2.5230756 L12.450323,2.5230756 Z M13.0044109,1.86620631 C12.6277155,1.86620631 12.3839428,1.49663604 12.3839428,1.03487644 C12.3839428,0.562548402 12.6351813,0.203383983 13.0195047,0.203383983 C13.4033412,0.203383983 13.6399728,0.562548402 13.647114,1.03487644 C13.647114,1.49663604 13.4033412,1.86620631 13.0118767,1.86620631 L13.0044109,1.86620631 L13.0044109,1.86620631 Z" id="Shape"></path>
                            <path d="M15.730543,1.15893369 L15.730543,2.52405114 L16.5358694,2.52405114 L16.5358694,3.67406017 L15.730543,3.67406017 L15.730543,5.50126241 C15.730543,6.1069154 15.8413931,6.38413375 16.1737809,6.38413375 C16.3289385,6.38413375 16.4029467,6.3737279 16.5061687,6.34299813 L16.5137968,7.52373693 C16.3732461,7.59543974 16.1000973,7.65706189 15.789782,7.65706189 C15.4276935,7.65706189 15.1250064,7.48260131 14.9401481,7.22586947 C14.7330549,6.92800201 14.6298329,6.4457559 14.6298329,5.73734513 L14.6298329,3.67406017 L14.1495909,3.67406017 L14.1495909,2.52405114 L14.6298329,2.52405114 L14.6298329,1.57972025 L15.730543,1.15893369 L15.730543,1.15893369 Z" id="Shape"></path>
                            <path d="M20.5917151,5.93261742 C20.5917151,6.58964929 20.6064843,7.12327429 20.6214158,7.54422345 L19.6461626,7.54422345 L19.5943893,6.83597528 L19.5723167,6.83597528 C19.431766,7.14376081 19.0920747,7.65706189 18.4419059,7.65706189 C17.7029597,7.65706189 17.1711067,7.02051652 17.1711067,5.47053263 L17.1711067,2.52421374 L18.2938894,2.52421374 L18.2938894,5.22420665 C18.2938894,5.95310393 18.4641408,6.3945396 18.8630712,6.3945396 C19.1732241,6.3945396 19.3580823,6.09683474 19.4246248,5.85034616 C19.4540009,5.75815684 19.4689324,5.64499322 19.4689324,5.51150567 L19.4689324,2.52421374 L20.5917151,2.52421374 L20.5917151,5.93261742 L20.5917151,5.93261742 Z" id="Shape"></path>
                            <path d="M22.7488278,1.15893369 L22.7488278,2.52405114 L23.5541542,2.52405114 L23.5541542,3.67406017 L22.7488278,3.67406017 L22.7488278,5.50126241 C22.7488278,6.1069154 22.8596778,6.38413375 23.1920657,6.38413375 C23.3472233,6.38413375 23.4212315,6.3737279 23.5244535,6.34299813 L23.5320816,7.52373693 C23.3915308,7.59543974 23.118382,7.65706189 22.8080668,7.65706189 C22.4459783,7.65706189 22.1432912,7.48260131 21.9584329,7.22586947 C21.7513397,6.92800201 21.6481177,6.4457559 21.6481177,5.73734513 L21.6481177,3.67406017 L21.168038,3.67406017 L21.168038,2.52405114 L21.6481177,2.52405114 L21.6481177,1.57972025 L22.7488278,1.15893369 L22.7488278,1.15893369 Z" id="Shape"></path>
                            <path d="M25.8518176,6.53745745 C26.2950555,6.53745745 26.5685288,5.93180446 26.5685288,5.02828401 C26.5685288,4.28930606 26.3615979,3.529679 25.8518176,3.529679 C25.3199646,3.529679 25.1128714,4.28930606 25.1128714,5.03868986 C25.1128714,5.89066883 25.3717379,6.53745745 25.8443518,6.53745745 L25.8518176,6.53745745 L25.8518176,6.53745745 Z M25.8297449,7.65608634 C24.7733424,7.65608634 23.960388,6.69094374 23.960388,5.06909445 C23.960388,3.44708257 24.7290348,2.41023716 25.8961251,2.41023716 C26.9968352,2.41023716 27.7357814,3.46756908 27.7357814,4.98698579 C27.7357814,6.81435062 26.7973701,7.65608634 25.8372107,7.65608634 L25.8297449,7.65608634 L25.8297449,7.65608634 Z" id="Shape"></path>
                            <path d="M32.3012452,4.65952669 C32.3012452,4.56717477 32.3012452,4.464417 32.2866384,4.37190249 C32.2200959,3.95111593 31.9763232,3.61243803 31.6291661,3.61243803 C31.11192,3.61243803 30.8532158,4.24898339 30.8532158,5.03934022 C30.8532158,5.88123853 31.1562276,6.41486353 31.6217004,6.41486353 C31.9466225,6.41486353 32.2126301,6.10675281 32.2791726,5.66547973 C32.2941041,5.56288455 32.3012452,5.43964027 32.3012452,5.31639598 L32.3012452,4.65952669 L32.3012452,4.65952669 Z M33.4243526,0.254925459 L33.4243526,6.04496808 C33.4243526,6.6198913 33.4391218,7.20505777 33.453891,7.54373567 L32.4565651,7.54373567 L32.4120953,6.81500099 L32.3898604,6.81500099 C32.1683226,7.36927509 31.7250847,7.6567367 31.2596119,7.6567367 C30.4026745,7.6567367 29.7156639,6.64037781 29.7156639,5.07998807 C29.7081981,3.39635405 30.469217,2.41088752 31.3336201,2.41088752 C31.7843237,2.41088752 32.124015,2.63688958 32.2866384,2.97573008 L32.3012452,2.97573008 L32.3012452,0.254925459 L33.4243526,0.254925459 L33.4243526,0.254925459 Z" id="Shape"></path>
                            <path d="M36.5124109,4.45303561 C36.5124109,4.08362793 36.3940951,3.43667672 35.8843147,3.43667672 C35.404235,3.43667672 35.211911,4.0424923 35.1825349,4.45303561 L36.5124109,4.45303561 L36.5124109,4.45303561 Z M35.1896761,5.52126115 C35.2270048,6.17813044 35.6848496,6.48624116 36.2095614,6.48624116 C36.5935603,6.48624116 36.9038755,6.41437576 37.2068872,6.27064495 L37.3545791,7.32797688 C36.9853494,7.54357308 36.5344835,7.64616826 36.0469381,7.64616826 C34.8204464,7.64616826 34.1186666,6.66053915 34.1186666,5.07982548 C34.1186666,3.80673476 34.6949895,2.40048167 35.9435538,2.40048167 C37.1108064,2.40048167 37.5540442,3.66316655 37.5540442,4.90520231 C37.5540442,5.1721774 37.5318093,5.40826013 37.5172024,5.53150441 L35.1896761,5.52126115 L35.1896761,5.52126115 Z" id="Shape"></path>
                            <rect id="Rectangle-path" x="39.7629302" y="0.624007954" width="1.12278274" height="6.91907735"></rect>
                            <path d="M41.8241243,4.12460096 C41.8241243,3.49813627 41.8095174,2.97491712 41.7944237,2.522913 L42.7696768,2.522913 L42.8214501,3.22108051 L42.8436851,3.22108051 C42.9912146,2.89264587 43.3533031,2.41007457 43.9593267,2.41007457 C44.6979483,2.41007457 45.2520362,3.09799881 45.2520362,4.5761173 L45.2520362,7.54292272 L44.1290912,7.54292272 L44.1290912,4.76098373 C44.1290912,4.11419511 43.9664678,3.67292203 43.5603963,3.67292203 C43.2500811,3.67292203 43.0652229,3.9706269 42.9840735,4.25792592 C42.9545351,4.36052109 42.9469071,4.5042519 42.9469071,4.64814529 L42.9469071,7.54292272 L41.8241243,7.54292272 L41.8241243,4.12460096 L41.8241243,4.12460096 Z" id="Shape"></path>
                            <path d="M46.8477575,2.5230756 L47.3353029,4.85349824 C47.4240803,5.27428481 47.4833194,5.67474744 47.5423961,6.07521008 L47.5644688,6.07521008 C47.6235455,5.66434159 47.6827846,5.28469066 47.7640962,4.85349824 L48.2294067,2.5230756 L49.4115908,2.5230756 L48.0667834,7.54308531 L46.9438384,7.54308531 L45.6287316,2.5230756 L46.8477575,2.5230756 L46.8477575,2.5230756 Z" id="Shape"></path>
                            <path d="M51.9750996,4.45303561 C51.9750996,4.08362793 51.8571084,3.43667672 51.347328,3.43667672 C50.8669237,3.43667672 50.6749243,4.0424923 50.6452236,4.45303561 L51.9750996,4.45303561 L51.9750996,4.45303561 Z M50.6526894,5.52126115 C50.6896935,6.17813044 51.1478628,6.48624116 51.6722501,6.48624116 C52.0565735,6.48624116 52.3668887,6.41437576 52.6695759,6.27064495 L52.8172678,7.32797688 C52.4480381,7.54357308 51.9971722,7.64616826 51.5096267,7.64616826 C50.2834597,7.64616826 49.5813553,6.66053915 49.5813553,5.07982548 C49.5813553,3.80673476 50.1576782,2.40048167 51.4062424,2.40048167 C52.573495,2.40048167 53.0167329,3.66316655 53.0167329,4.90520231 C53.0167329,5.1721774 52.994498,5.40826013 52.9798911,5.53150441 L50.6526894,5.52126115 L50.6526894,5.52126115 Z" id="Shape"></path>
                            <path d="M53.6816709,6.18788593 C53.8886018,6.36234651 54.3172328,6.5574562 54.6496206,6.5574562 C54.9893119,6.5574562 55.1297003,6.40348213 55.1297003,6.1467503 C55.1297003,5.8799378 55.0188503,5.7568561 54.6053131,5.56158382 C53.85176,5.22274333 53.5636797,4.6479827 53.5708209,4.06281623 C53.5708209,3.11832274 54.1471437,2.41007457 55.0410852,2.41007457 C55.4622505,2.41007457 55.8314801,2.55364278 56.0531802,2.70794203 L55.8611808,3.77535462 C55.6985575,3.66251618 55.3811011,3.49813627 55.077927,3.49813627 C54.8047782,3.49813627 54.6496206,3.65227292 54.6496206,3.89859891 C54.6496206,4.14492489 54.7898468,4.26816917 55.2330846,4.48392797 C55.9200952,4.80211936 56.2010344,5.29477132 56.2083378,6.02350601 C56.2083378,6.9679995 55.6837883,7.65576115 54.6496206,7.65576115 C54.1766821,7.65576115 53.7556791,7.50178709 53.4822057,7.29643414 L53.6816709,6.18788593 L53.6816709,6.18788593 Z" id="Shape"></path>
                            <path d="M58.1510538,1.15893369 L58.1510538,2.52405114 L58.9563802,2.52405114 L58.9563802,3.67406017 L58.1510538,3.67406017 L58.1510538,5.50126241 C58.1510538,6.1069154 58.2619039,6.38413375 58.5942917,6.38413375 C58.7496116,6.38413375 58.8236199,6.3737279 58.9266796,6.34299813 L58.9343076,7.52373693 C58.7937569,7.59543974 58.5207704,7.65706189 58.2104552,7.65706189 C57.8482044,7.65706189 57.5455172,7.48260131 57.3606589,7.22586947 C57.153728,6.92800201 57.0503437,6.4457559 57.0503437,5.73734513 L57.0503437,3.67406017 L56.570264,3.67406017 L56.570264,2.52405114 L57.0503437,2.52405114 L57.0503437,1.57972025 L58.1510538,1.15893369 L58.1510538,1.15893369 Z" id="Shape"></path>
                            <path d="M59.6063867,2.5230756 L60.7296564,2.5230756 L60.7296564,7.54308531 L59.6063867,7.54308531 L59.6063867,2.5230756 L59.6063867,2.5230756 Z M60.1604747,1.86620631 C59.7837793,1.86620631 59.5398442,1.49663604 59.5398442,1.03487644 C59.5398442,0.562548402 59.791245,0.203383983 60.1754061,0.203383983 C60.559405,0.203383983 60.7960366,0.562548402 60.80334,1.03487644 C60.80334,1.49663604 60.559405,1.86620631 60.1681027,1.86620631 L60.1604747,1.86620631 L60.1604747,1.86620631 Z" id="Shape"></path>
                            <path d="M63.9282401,4.56684959 C63.9282401,4.47433508 63.921099,4.3717399 63.9061675,4.27922539 C63.8248558,3.86868209 63.6107837,3.59146374 63.3004685,3.59146374 C62.8866067,3.59146374 62.5616846,4.10476481 62.5616846,5.01836593 C62.5616846,5.76791232 62.82753,6.3529162 63.2930028,6.3529162 C63.5887111,6.3529162 63.8173901,6.0861037 63.8913983,5.72677669 C63.921099,5.603695 63.9282401,5.43931508 63.9282401,5.30599013 L63.9282401,4.56684959 L63.9282401,4.56684959 Z M65.0513474,6.81548876 C65.0513474,7.78046876 64.910959,8.5708256 64.4972595,9.074046 C64.1054703,9.54604886 63.5664762,9.68977966 63.0344609,9.68977966 C62.5540566,9.68977966 62.05937,9.55645471 61.733961,9.31012873 L61.9556611,8.11930926 C62.1848269,8.3040131 62.5762915,8.49912279 63.0049225,8.49912279 C63.5367755,8.49912279 63.9431716,8.109066 63.9431716,7.17481577 L63.9431716,6.85646179 L63.9282401,6.85646179 C63.7141681,7.2670051 63.367011,7.50325041 62.9531492,7.50325041 C62.05937,7.50325041 61.4238081,6.49713478 61.4238081,5.05982674 C61.4238081,3.43797745 62.1700578,2.4113753 63.063837,2.4113753 C63.5590104,2.4113753 63.8691634,2.70924276 64.0540216,3.11978606 L64.0686285,3.11978606 L64.1054703,2.52437633 L65.0807235,2.52437633 C65.0661166,2.85297356 65.0513474,3.27376013 65.0513474,4.02314392 L65.0513474,6.81548876 L65.0513474,6.81548876 Z" id="Shape"></path>
                            <path d="M67.8733981,5.17168963 C67.2821437,5.17168963 66.824299,5.36663673 66.824299,5.96204646 C66.824299,6.3625091 67.0161361,6.55761879 67.2675369,6.55761879 C67.5410102,6.55761879 67.7773172,6.30072436 67.8511632,5.98253298 C67.8659323,5.90058691 67.8733981,5.80823499 67.8733981,5.71588307 L67.8733981,5.17168963 L67.8733981,5.17168963 Z M68.959339,6.33259228 C68.959339,6.80475773 68.9741082,7.26667992 69.0184158,7.54389827 L68.0063208,7.54389827 L67.9399406,7.04084045 L67.9177056,7.04084045 C67.6813987,7.44130309 67.3118444,7.6567367 66.8832134,7.6567367 C66.1518953,7.6567367 65.7161231,6.91775875 65.7161231,6.11715866 C65.7161231,4.81317557 66.5582913,4.19727932 67.8365563,4.19727932 L67.8365563,4.13565718 C67.8365563,3.86868209 67.7330097,3.48903115 67.1789217,3.48903115 C66.8095298,3.48903115 66.4177406,3.66349173 66.1814336,3.85843883 L65.9745027,2.86272905 C66.2259035,2.66778195 66.7209147,2.41105012 67.3782246,2.41105012 C68.5826436,2.41105012 68.959339,3.39651664 68.959339,4.57709285 L68.959339,6.33259228 L68.959339,6.33259228 Z" id="Shape"></path>
                            <path d="M72.5644811,7.4203288 C72.365016,7.55381634 71.9883206,7.65641152 71.5600142,7.65641152 C70.3925993,7.65641152 69.6465119,6.66053915 69.6465119,5.07966289 C69.6465119,3.61178766 70.3703643,2.41056234 71.7151718,2.41056234 C72.0103932,2.41056234 72.3356399,2.48242774 72.5719469,2.60567203 L72.3947166,3.76576173 C72.2616317,3.68365306 72.0623288,3.61178766 71.7666205,3.61178766 C71.1756907,3.61178766 70.7915296,4.19695414 70.7989953,5.01820334 C70.7989953,5.94204772 71.2422332,6.43486227 71.7888554,6.43486227 C72.0547007,6.43486227 72.2616317,6.37324013 72.4315584,6.27064495 L72.5644811,7.4203288 L72.5644811,7.4203288 Z" id="Shape"></path>
                            <path d="M73.1851115,2.5230756 L74.3078943,2.5230756 L74.3078943,7.54308531 L73.1851115,7.54308531 L73.1851115,2.5230756 L73.1851115,2.5230756 Z M73.7393618,1.86620631 C73.3625041,1.86620631 73.1187313,1.49663604 73.1187313,1.03487644 C73.1187313,0.562548402 73.3699698,0.203383983 73.7539686,0.203383983 C74.1381298,0.203383983 74.3745991,0.562548402 74.3819025,1.03487644 C74.3819025,1.49663604 74.1381298,1.86620631 73.7466652,1.86620631 L73.7393618,1.86620631 L73.7393618,1.86620631 Z" id="Shape"></path>
                            <path d="M78.0686809,0.357358046 L77.1671113,1.91774779 L76.3987891,1.91774779 L77.0341887,0.357358046 L78.0686809,0.357358046 L78.0686809,0.357358046 Z M76.8938002,6.53745745 C77.3372004,6.53745745 77.6103492,5.93180446 77.6103492,5.02828401 C77.6103492,4.28930606 77.4035806,3.529679 76.8938002,3.529679 C76.3616226,3.529679 76.154854,4.28930606 76.154854,5.03868986 C76.154854,5.89066883 76.4133959,6.53745745 76.8863345,6.53745745 L76.8938002,6.53745745 L76.8938002,6.53745745 Z M76.8717276,7.65608634 C75.8150005,7.65608634 75.0023706,6.69094374 75.0023706,5.06893186 C75.0023706,3.44708257 75.7706929,2.41023716 76.9382701,2.41023716 C78.0388179,2.41023716 78.7777641,3.46756908 78.7777641,4.98698579 C78.7777641,6.81435062 77.8393527,7.65608634 76.8788688,7.65608634 L76.8717276,7.65608634 L76.8717276,7.65608634 Z" id="Shape"></path>
                            <path d="M79.4722405,4.12460096 C79.4722405,3.49813627 79.4576336,2.97491712 79.4425398,2.522913 L80.417793,2.522913 L80.4695663,3.22108051 L80.4916389,3.22108051 C80.6393308,2.89264587 81.0014193,2.41007457 81.6072805,2.41007457 C82.3460644,2.41007457 82.89999,3.09799881 82.89999,4.5761173 L82.89999,7.54292272 L81.7772073,7.54292272 L81.7772073,4.76098373 C81.7772073,4.11419511 81.6145839,3.67292203 81.2083502,3.67292203 C80.8981973,3.67292203 80.713339,3.9706269 80.6321896,4.25792592 C80.6024889,4.36052109 80.5950232,4.5042519 80.5950232,4.64814529 L80.5950232,7.54292272 L79.4722405,7.54292272 L79.4722405,4.12460096 L79.4722405,4.12460096 Z" id="Shape"></path>
                            <path d="M87.4807099,4.45303561 C87.4807099,4.08362793 87.3623941,3.43667672 86.8524515,3.43667672 C86.3723718,3.43667672 86.1800477,4.0424923 86.150834,4.45303561 L87.4807099,4.45303561 L87.4807099,4.45303561 Z M86.1579751,5.52126115 C86.1951415,6.17813044 86.6529863,6.48624116 87.1778604,6.48624116 C87.561697,6.48624116 87.8720122,6.41437576 88.175024,6.27064495 L88.3227158,7.32797688 C87.9534862,7.54357308 87.5027825,7.64616826 87.0152371,7.64616826 C85.7885832,7.64616826 85.0868034,6.66053915 85.0868034,5.07982548 C85.0868034,3.80673476 85.6631262,2.40048167 86.9116905,2.40048167 C88.0791054,2.40048167 88.522181,3.66316655 88.522181,4.90520231 C88.522181,5.1721774 88.4999461,5.40826013 88.4853392,5.53150441 L86.1579751,5.52126115 L86.1579751,5.52126115 Z" id="Shape"></path>
                            <path d="M89.1944224,4.12460096 C89.1944224,3.49813627 89.1798155,2.97491712 89.1650463,2.522913 L90.1401372,2.522913 L90.1919105,3.22108051 L90.2139831,3.22108051 C90.3618373,2.89264587 90.7239258,2.41007457 91.3294624,2.41007457 C92.0685709,2.41007457 92.6226589,3.09799881 92.6226589,4.5761173 L92.6226589,7.54292272 L91.4997138,7.54292272 L91.4997138,4.76098373 C91.4997138,4.11419511 91.3370905,3.67292203 90.9305321,3.67292203 C90.6203792,3.67292203 90.4355209,3.9706269 90.3543716,4.25792592 C90.3248332,4.36052109 90.3175297,4.5042519 90.3175297,4.64814529 L90.3175297,7.54292272 L89.1944224,7.54292272 L89.1944224,4.12460096 L89.1944224,4.12460096 Z" id="Shape"></path>
                            <path d="M98.7025323,7.35854406 C98.5030671,7.49203161 98.0302909,7.65624893 97.4320577,7.65624893 C95.7103926,7.65624893 94.8239168,6.15748133 94.8239168,4.17630503 C94.8239168,1.81482742 96.0353147,0.5114947 97.5427454,0.5114947 C98.1262094,0.5114947 98.5697719,0.675549431 98.7690748,0.819280235 L98.5327678,2.05107274 C98.3110677,1.91774779 97.9934491,1.7945035 97.5872153,1.7945035 C96.7005772,1.7945035 96.0061009,2.54404989 96.0061009,4.09403378 C96.0061009,5.47996294 96.5970306,6.35242843 97.5943564,6.35242843 C97.9416758,6.35242843 98.3110677,6.2602391 98.5402335,6.12675156 L98.7025323,7.35854406 L98.7025323,7.35854406 Z" id="Shape"></path>
                            <path d="M100.940957,6.53745745 C101.384195,6.53745745 101.65783,5.93180446 101.65783,5.02828401 C101.65783,4.28930606 101.450899,3.529679 100.940957,3.529679 C100.409266,3.529679 100.202173,4.28930606 100.202173,5.03868986 C100.202173,5.89066883 100.460877,6.53745745 100.933653,6.53745745 L100.940957,6.53745745 L100.940957,6.53745745 Z M100.918884,7.65608634 C99.8624815,7.65608634 99.0496893,6.69094374 99.0496893,5.06909445 C99.0496893,3.44708257 99.8181739,2.41023716 100.985264,2.41023716 C102.086137,2.41023716 102.824921,3.46756908 102.824921,4.98698579 C102.824921,6.81435062 101.886671,7.65608634 100.92635,7.65608634 L100.918884,7.65608634 L100.918884,7.65608634 Z" id="Shape"></path>
                            <path d="M103.519072,4.12460096 C103.519072,3.49813627 103.504465,2.97491712 103.489696,2.522913 L104.442714,2.522913 L104.487184,3.21083725 L104.509419,3.21083725 C104.664415,2.88224002 104.989337,2.41007457 105.602826,2.41007457 C106.07544,2.41007457 106.437366,2.74891506 106.592686,3.27245939 L106.607293,3.27245939 C106.747844,3.0054843 106.903001,2.80013135 107.080231,2.65656314 C107.279697,2.50242649 107.501234,2.41007457 107.767242,2.41007457 C108.461881,2.41007457 108.98643,3.08759296 108.98643,4.58652315 L108.98643,7.54292272 L107.892861,7.54292272 L107.892861,4.82260588 C107.892861,4.09370859 107.722934,3.67292203 107.360846,3.67292203 C107.094838,3.67292203 106.917446,3.91908542 106.836296,4.21679029 C106.814224,4.32995391 106.799617,4.48392797 106.799617,4.60717226 L106.799617,7.54292272 L105.706048,7.54292272 L105.706048,4.73025396 C105.706048,4.10395185 105.543425,3.67292203 105.181661,3.67292203 C104.893256,3.67292203 104.723329,3.98087016 104.656949,4.22719614 C104.620107,4.35044043 104.612479,4.49400864 104.612479,4.62765878 L104.612479,7.54292272 L103.519072,7.54292272 L103.519072,4.12460096 L103.519072,4.12460096 Z" id="Shape"></path>
                            <path d="M113.278421,5.93261742 C113.278421,6.58964929 113.293677,7.12327429 113.308284,7.54422345 L112.33303,7.54422345 L112.281095,6.83597528 L112.259184,6.83597528 C112.118634,7.14376081 111.778942,7.65706189 111.128774,7.65706189 C110.38999,7.65706189 109.858299,7.02051652 109.858299,5.47053263 L109.858299,2.52421374 L110.981082,2.52421374 L110.981082,5.22420665 C110.981082,5.95310393 111.150846,6.3945396 111.549777,6.3945396 C111.860092,6.3945396 112.044788,6.09683474 112.111493,5.85034616 C112.141031,5.75815684 112.155638,5.64499322 112.155638,5.51150567 L112.155638,2.52421374 L113.278421,2.52421374 L113.278421,5.93261742 L113.278421,5.93261742 Z" id="Shape"></path>
                            <path d="M114.179828,4.12460096 C114.179828,3.49813627 114.165221,2.97491712 114.150452,2.522913 L115.125543,2.522913 L115.177154,3.22108051 L115.199389,3.22108051 C115.347243,2.89264587 115.709331,2.41007457 116.314868,2.41007457 C117.053976,2.41007457 117.607902,3.09799881 117.607902,4.5761173 L117.607902,7.54292272 L116.485119,7.54292272 L116.485119,4.76098373 C116.485119,4.11419511 116.322496,3.67292203 115.915938,3.67292203 C115.605785,3.67292203 115.420926,3.9706269 115.339777,4.25792592 C115.310239,4.36052109 115.302935,4.5042519 115.302935,4.64814529 L115.302935,7.54292272 L114.179828,7.54292272 L114.179828,4.12460096 L114.179828,4.12460096 Z" id="Shape"></path>
                            <path d="M118.509147,2.5230756 L119.63193,2.5230756 L119.63193,7.54308531 L118.509147,7.54308531 L118.509147,2.5230756 L118.509147,2.5230756 Z M119.063235,1.86620631 C118.68654,1.86620631 118.442604,1.49663604 118.442604,1.03487644 C118.442604,0.562548402 118.694005,0.203383983 119.077842,0.203383983 C119.462165,0.203383983 119.698472,0.562548402 119.7061,1.03487644 C119.7061,1.49663604 119.462165,1.86620631 119.070863,1.86620631 L119.063235,1.86620631 L119.063235,1.86620631 Z" id="Shape"></path>
                            <path d="M123.2447,7.4203288 C123.045235,7.55381634 122.668377,7.65641152 122.240233,7.65641152 C121.072656,7.65641152 120.326731,6.66053915 120.326731,5.07966289 C120.326731,3.61178766 121.050421,2.41056234 122.395391,2.41056234 C122.690612,2.41056234 123.015859,2.48242774 123.252328,2.60567203 L123.074935,3.76576173 C122.942013,3.68365306 122.742385,3.61178766 122.446839,3.61178766 C121.855747,3.61178766 121.471748,4.19695414 121.479052,5.01820334 C121.479052,5.94204772 121.922452,6.43486227 122.469074,6.43486227 C122.73492,6.43486227 122.942013,6.37324013 123.111777,6.27064495 L123.2447,7.4203288 L123.2447,7.4203288 Z" id="Shape"></path>
                            <path d="M125.815512,5.17168963 C125.224258,5.17168963 124.766251,5.36663673 124.766251,5.96204646 C124.766251,6.3625091 124.958412,6.55761879 125.209651,6.55761879 C125.483124,6.55761879 125.719431,6.30072436 125.793439,5.98253298 C125.808046,5.90058691 125.815512,5.80823499 125.815512,5.71588307 L125.815512,5.17168963 L125.815512,5.17168963 Z M126.901453,6.33259228 C126.901453,6.80475773 126.916222,7.26667992 126.96053,7.54389827 L125.948597,7.54389827 L125.882055,7.04084045 L125.85982,7.04084045 C125.623513,7.44130309 125.254121,7.6567367 124.825327,7.6567367 C124.094172,7.6567367 123.658237,6.91775875 123.658237,6.11715866 C123.658237,4.81317557 124.500405,4.19727932 125.77867,4.19727932 L125.77867,4.13565718 C125.77867,3.86868209 125.675124,3.48903115 125.121036,3.48903115 C124.751644,3.48903115 124.360017,3.66349173 124.12371,3.85843883 L123.916779,2.86272905 C124.168017,2.66778195 124.663029,2.41105012 125.320339,2.41105012 C126.52492,2.41105012 126.901453,3.39651664 126.901453,4.57709285 L126.901453,6.33259228 L126.901453,6.33259228 Z" id="Shape"></path>
                            <path d="M130.50692,7.4203288 C130.307455,7.55381634 129.930597,7.65641152 129.50229,7.65641152 C128.334876,7.65641152 127.58895,6.66053915 127.58895,5.07966289 C127.58895,3.61178766 128.312641,2.41056234 129.657448,2.41056234 C129.952832,2.41056234 130.278078,2.48242774 130.514223,2.60567203 L130.337155,3.76576173 C130.20407,3.68365306 130.004443,3.61178766 129.708897,3.61178766 C129.117967,3.61178766 128.733806,4.19695414 128.741272,5.01820334 C128.741272,5.94204772 129.184672,6.43486227 129.731294,6.43486227 C129.996977,6.43486227 130.20407,6.37324013 130.373835,6.27064495 L130.50692,7.4203288 L130.50692,7.4203288 Z" id="Shape"></path>
                            <path d="M131.127388,2.5230756 L132.250171,2.5230756 L132.250171,7.54308531 L131.127388,7.54308531 L131.127388,2.5230756 L131.127388,2.5230756 Z M131.681476,1.86620631 C131.30478,1.86620631 131.060845,1.49663604 131.060845,1.03487644 C131.060845,0.562548402 131.312246,0.203383983 131.696245,0.203383983 C132.080406,0.203383983 132.316713,0.562548402 132.324179,1.03487644 C132.324179,1.49663604 132.080406,1.86620631 131.688941,1.86620631 L131.681476,1.86620631 L131.681476,1.86620631 Z" id="Shape"></path>
                            <path d="M136.010795,0.357358046 L135.109225,1.91774779 L134.341065,1.91774779 L134.976465,0.357358046 L136.010795,0.357358046 L136.010795,0.357358046 Z M134.836239,6.53745745 C135.279314,6.53745745 135.552625,5.93180446 135.552625,5.02828401 C135.552625,4.28930606 135.345857,3.529679 134.836239,3.529679 C134.303899,3.529679 134.097293,4.28930606 134.097293,5.03868986 C134.097293,5.89066883 134.355835,6.53745745 134.828773,6.53745745 L134.836239,6.53745745 L134.836239,6.53745745 Z M134.814166,7.65608634 C133.757277,7.65608634 132.944647,6.69094374 132.944647,5.06893186 C132.944647,3.44708257 133.713131,2.41023716 134.880384,2.41023716 C135.981094,2.41023716 136.72004,3.46756908 136.72004,4.98698579 C136.72004,6.81435062 135.781791,7.65608634 134.821145,7.65608634 L134.814166,7.65608634 L134.814166,7.65608634 Z" id="Shape"></path>
                            <path d="M137.414192,4.12460096 C137.414192,3.49813627 137.399585,2.97491712 137.384654,2.522913 L138.359745,2.522913 L138.41168,3.22108051 L138.433753,3.22108051 C138.581282,2.89264587 138.943696,2.41007457 139.549557,2.41007457 C140.288016,2.41007457 140.842104,3.09799881 140.842104,4.5761173 L140.842104,7.54292272 L139.719321,7.54292272 L139.719321,4.76098373 C139.719321,4.11419511 139.556536,3.67292203 139.150464,3.67292203 C138.840149,3.67292203 138.655453,3.9706269 138.574141,4.25792592 C138.544603,4.36052109 138.537137,4.5042519 138.537137,4.64814529 L138.537137,7.54292272 L137.414192,7.54292272 L137.414192,4.12460096 L137.414192,4.12460096 Z" id="Shape"></path>
                            <path d="M144.078016,2.5230756 L144.617497,4.9868232 C144.676574,5.28469066 144.75042,5.65409833 144.794728,5.92107343 L144.816963,5.92107343 C144.868411,5.65409833 144.92765,5.27428481 144.979424,4.9868232 L145.422499,2.5230756 L146.626918,2.5230756 L145.78475,5.82872151 C145.267504,7.82030366 144.920185,8.6104979 144.513951,9.11371831 C144.12979,9.58588376 143.715928,9.76050693 143.427685,9.80147996 L143.191378,8.4875788 C143.331929,8.44660576 143.509322,8.35409125 143.679248,8.2206037 C143.849013,8.09735942 144.041175,7.84079018 144.144559,7.5943016 C144.181401,7.51251812 144.203473,7.44049013 144.203473,7.36862473 C144.203473,7.31724584 144.196332,7.23513718 144.159166,7.11205549 L142.829452,2.5230756 L144.078016,2.5230756 L144.078016,2.5230756 Z" id="Shape"></path>
                            <path d="M152.278485,7.35854406 C152.07902,7.49203161 151.606244,7.65624893 151.008011,7.65624893 C149.286346,7.65624893 148.39987,6.15748133 148.39987,4.17630503 C148.39987,1.81482742 149.611268,0.5114947 151.118698,0.5114947 C151.702162,0.5114947 152.145563,0.675549431 152.345028,0.819280235 L152.108721,2.05107274 C151.887021,1.91774779 151.56924,1.7945035 151.163006,1.7945035 C150.27653,1.7945035 149.582054,2.54404989 149.582054,4.09403378 C149.582054,5.47996294 150.172984,6.35242843 151.170309,6.35242843 C151.517629,6.35242843 151.887021,6.2602391 152.116024,6.12675156 L152.278485,7.35854406 L152.278485,7.35854406 Z" id="Shape"></path>
                            <path d="M156.245554,5.93261742 C156.245554,6.58964929 156.260161,7.12327429 156.275254,7.54422345 L155.300001,7.54422345 L155.248066,6.83597528 L155.226155,6.83597528 C155.085767,7.14376081 154.745913,7.65706189 154.095744,7.65706189 C153.356636,7.65706189 152.824945,7.02051652 152.824945,5.47053263 L152.824945,2.52421374 L153.947728,2.52421374 L153.947728,5.22420665 C153.947728,5.95310393 154.117817,6.3945396 154.516747,6.3945396 C154.827225,6.3945396 155.011759,6.09683474 155.078463,5.85034616 C155.107677,5.75815684 155.122609,5.64499322 155.122609,5.51150567 L155.122609,2.52421374 L156.245554,2.52421374 L156.245554,5.93261742 L156.245554,5.93261742 Z" id="Shape"></path>
                            <rect id="Rectangle-path" x="157.146312" y="0.254925459" width="1.12278274" height="7.28881022"></rect>
                            <path d="M160.427992,1.15893369 L160.427992,2.52405114 L161.233319,2.52405114 L161.233319,3.67406017 L160.427992,3.67406017 L160.427992,5.50126241 C160.427992,6.1069154 160.538842,6.38413375 160.871068,6.38413375 C161.02655,6.38413375 161.100396,6.3737279 161.203618,6.34299813 L161.211084,7.52373693 C161.070695,7.59543974 160.797222,7.65706189 160.486907,7.65706189 C160.124818,7.65706189 159.822131,7.48260131 159.637273,7.22586947 C159.430504,6.92800201 159.326958,6.4457559 159.326958,5.73734513 L159.326958,3.67406017 L158.846878,3.67406017 L158.846878,2.52405114 L159.326958,2.52405114 L159.326958,1.57972025 L160.427992,1.15893369 L160.427992,1.15893369 Z" id="Shape"></path>
                            <path d="M165.28884,5.93261742 C165.28884,6.58964929 165.303934,7.12327429 165.318541,7.54422345 L164.34345,7.54422345 L164.291514,6.83597528 L164.269441,6.83597528 C164.129215,7.14376081 163.789362,7.65706189 163.139031,7.65706189 C162.400409,7.65706189 161.868556,7.02051652 161.868556,5.47053263 L161.868556,2.52421374 L162.991501,2.52421374 L162.991501,5.22420665 C162.991501,5.95310393 163.161266,6.3945396 163.560196,6.3945396 C163.870673,6.3945396 164.055207,6.09683474 164.121912,5.85034616 C164.15145,5.75815684 164.166057,5.64499322 164.166057,5.51150567 L164.166057,2.52421374 L165.28884,2.52421374 L165.28884,5.93261742 L165.28884,5.93261742 Z" id="Shape"></path>
                            <path d="M166.19609,4.17663021 C166.19609,3.43732708 166.188624,2.95491838 166.166389,2.52372596 L167.126873,2.52372596 L167.171181,3.45797619 L167.200881,3.45797619 C167.385415,2.71883565 167.821674,2.41088752 168.175972,2.41088752 C168.279519,2.41088752 168.33113,2.42129338 168.412279,2.4416173 L168.412279,3.90965512 C168.316361,3.8891686 168.22807,3.86851949 168.102126,3.86851949 C167.688427,3.86851949 167.40765,4.16638695 167.333804,4.65920151 C167.318873,4.76179669 167.311732,4.87463513 167.311732,5.00812267 L167.311732,7.54373567 L166.188624,7.54373567 L166.19609,4.17663021 L166.19609,4.17663021 Z" id="Shape"></path>
                            <path d="M170.836211,5.17168963 C170.244957,5.17168963 169.787112,5.36663673 169.787112,5.96204646 C169.787112,6.3625091 169.979111,6.55761879 170.23035,6.55761879 C170.503823,6.55761879 170.74013,6.30072436 170.813976,5.98253298 C170.828745,5.90058691 170.836211,5.80823499 170.836211,5.71588307 L170.836211,5.17168963 L170.836211,5.17168963 Z M171.92199,6.33259228 C171.92199,6.80475773 171.936759,7.26667992 171.981229,7.54389827 L170.969134,7.54389827 L170.902591,7.04084045 L170.880356,7.04084045 C170.644049,7.44130309 170.274495,7.6567367 169.845864,7.6567367 C169.114546,7.6567367 168.678774,6.91775875 168.678774,6.11715866 C168.678774,4.81317557 169.520942,4.19727932 170.799045,4.19727932 L170.799045,4.13565718 C170.799045,3.86868209 170.69566,3.48903115 170.141573,3.48903115 C169.772181,3.48903115 169.380391,3.66349173 169.144084,3.85843883 L168.937153,2.86272905 C169.188554,2.66778195 169.683403,2.41105012 170.340875,2.41105012 C171.545294,2.41105012 171.92199,3.39651664 171.92199,4.57709285 L171.92199,6.33259228 L171.92199,6.33259228 Z" id="Shape"></path>
                        </g>
                    </g>
                </g>
            </g>
        </g>
    </g>
</svg>