<?xml version="1.0" encoding="UTF-8" standalone="no"?>
<svg width="130px" height="148px" viewBox="0 0 130 148" version="1.1" xmlns="http://www.w3.org/2000/svg" xmlns:xlink="http://www.w3.org/1999/xlink" xmlns:sketch="http://www.bohemiancoding.com/sketch/ns" x="10" y="10">
    <g id="Welcome" stroke="none" stroke-width="1" fill="none" fill-rule="evenodd" sketch:type="MSPage">
        <g id="Desktop_C" sketch:type="MSArtboardGroup" transform="translate(-834.000000, -1014.000000)" fill="#FFFFFF">
            <path d="M902.723122,1160.52739 L902.723122,1160.52739 L960.077614,1127.40517 C961.760459,1126.43332 963.735123,1123.01359 963.735123,1121.06741 L963.735123,1054.82297 C963.735123,1052.87816 961.761651,1049.45775 960.077614,1048.48521 L902.723122,1015.363 C901.041135,1014.39165 897.095174,1014.39096 895.411995,1015.363 L838.057503,1048.48521 C836.374658,1049.45706 834.399994,1052.87679 834.399994,1054.82297 L834.399994,1121.06741 C834.399994,1123.01222 836.373466,1126.43264 838.057503,1127.40517 L895.411995,1160.52739 C897.093982,1161.49873 901.039943,1161.49942 902.723122,1160.52739 L902.723122,1160.52739 L902.723122,1160.52739 Z" id="mainPolygonCenter" sketch:type="MSShapeGroup"></path>
        </g>
    </g>
</svg>
